<svg id="visual" viewBox="0 0 900 600" width="900" height="600" xmlns="http://www.w3.org/2000/svg" xmlns:xlink="http://www.w3.org/1999/xlink" version="1.1"><g stroke-width="1" stroke-linejoin="bevel"><path d="M460 295L402 181L376 303Z" fill="#205a7a" stroke="#205a7a"></path><path d="M469 91L390 137L402 181Z" fill="#15384f" stroke="#15384f"></path><path d="M402 181L311 196L376 303Z" fill="#277297" stroke="#277297"></path><path d="M390 137L311 196L402 181Z" fill="#112e42" stroke="#112e42"></path><path d="M311 196L288 283L376 303Z" fill="#297ea6" stroke="#297ea6"></path><path d="M460 295L524 172L402 181Z" fill="#277297" stroke="#277297"></path><path d="M460 295L570 229L524 172Z" fill="#081a28" stroke="#081a28"></path><path d="M481 0L469 91L617 70Z" fill="#15384f" stroke="#15384f"></path><path d="M524 172L469 91L402 181Z" fill="#205a7a" stroke="#205a7a"></path><path d="M413 438L510 405L460 295Z" fill="#297ea6" stroke="#297ea6"></path><path d="M460 295L609 308L570 229Z" fill="#19435d" stroke="#19435d"></path><path d="M413 438L460 295L376 303Z" fill="#1d4e6b" stroke="#1d4e6b"></path><path d="M204 181L231 292L288 283Z" fill="#112e42" stroke="#112e42"></path><path d="M269 434L413 438L376 303Z" fill="#1d4e6b" stroke="#1d4e6b"></path><path d="M380 0L329 78L390 137Z" fill="#081a28" stroke="#081a28"></path><path d="M390 137L329 78L311 196Z" fill="#00101c" stroke="#00101c"></path><path d="M311 196L204 181L288 283Z" fill="#0c2435" stroke="#0c2435"></path><path d="M269 434L376 303L288 283Z" fill="#277297" stroke="#277297"></path><path d="M510 405L609 308L460 295Z" fill="#15384f" stroke="#15384f"></path><path d="M197 117L204 181L311 196Z" fill="#246688" stroke="#246688"></path><path d="M510 405L599 374L609 308Z" fill="#277297" stroke="#277297"></path><path d="M231 292L269 434L288 283Z" fill="#277297" stroke="#277297"></path><path d="M405 534L513 473L413 438Z" fill="#205a7a" stroke="#205a7a"></path><path d="M413 438L513 473L510 405Z" fill="#277297" stroke="#277297"></path><path d="M510 405L566 487L599 374Z" fill="#205a7a" stroke="#205a7a"></path><path d="M469 91L380 0L390 137Z" fill="#277297" stroke="#277297"></path><path d="M329 78L197 117L311 196Z" fill="#19435d" stroke="#19435d"></path><path d="M212 0L197 117L329 78Z" fill="#081a28" stroke="#081a28"></path><path d="M617 70L469 91L524 172Z" fill="#0c2435" stroke="#0c2435"></path><path d="M469 91L481 0L380 0Z" fill="#112e42" stroke="#112e42"></path><path d="M617 70L524 172L570 229Z" fill="#1d4e6b" stroke="#1d4e6b"></path><path d="M599 374L674 314L609 308Z" fill="#297ea6" stroke="#297ea6"></path><path d="M609 308L701 217L570 229Z" fill="#0c2435" stroke="#0c2435"></path><path d="M690 388L674 314L599 374Z" fill="#081a28" stroke="#081a28"></path><path d="M701 217L617 70L570 229Z" fill="#19435d" stroke="#19435d"></path><path d="M380 0L300 0L329 78Z" fill="#277297" stroke="#277297"></path><path d="M163 384L264 475L269 434Z" fill="#00101c" stroke="#00101c"></path><path d="M269 434L264 475L413 438Z" fill="#277297" stroke="#277297"></path><path d="M163 384L269 434L231 292Z" fill="#277297" stroke="#277297"></path><path d="M508 600L566 487L513 473Z" fill="#112e42" stroke="#112e42"></path><path d="M513 473L566 487L510 405Z" fill="#112e42" stroke="#112e42"></path><path d="M116 218L231 292L204 181Z" fill="#15384f" stroke="#15384f"></path><path d="M110 335L163 384L231 292Z" fill="#1d4e6b" stroke="#1d4e6b"></path><path d="M264 475L405 534L413 438Z" fill="#246688" stroke="#246688"></path><path d="M674 314L701 217L609 308Z" fill="#205a7a" stroke="#205a7a"></path><path d="M197 117L116 218L204 181Z" fill="#1d4e6b" stroke="#1d4e6b"></path><path d="M661 493L690 388L599 374Z" fill="#00101c" stroke="#00101c"></path><path d="M838 303L796 173L701 217Z" fill="#00101c" stroke="#00101c"></path><path d="M735 0L606 0L617 70Z" fill="#277297" stroke="#277297"></path><path d="M617 70L606 0L481 0Z" fill="#246688" stroke="#246688"></path><path d="M116 218L110 335L231 292Z" fill="#1d4e6b" stroke="#1d4e6b"></path><path d="M300 0L212 0L329 78Z" fill="#081a28" stroke="#081a28"></path><path d="M197 117L72 130L116 218Z" fill="#1d4e6b" stroke="#1d4e6b"></path><path d="M163 384L225 514L264 475Z" fill="#297ea6" stroke="#297ea6"></path><path d="M264 475L276 600L405 534Z" fill="#15384f" stroke="#15384f"></path><path d="M69 484L225 514L163 384Z" fill="#112e42" stroke="#112e42"></path><path d="M701 217L733 138L617 70Z" fill="#246688" stroke="#246688"></path><path d="M796 173L733 138L701 217Z" fill="#15384f" stroke="#15384f"></path><path d="M0 295L90 371L110 335Z" fill="#0c2435" stroke="#0c2435"></path><path d="M110 335L90 371L163 384Z" fill="#1d4e6b" stroke="#1d4e6b"></path><path d="M566 487L661 493L599 374Z" fill="#297ea6" stroke="#297ea6"></path><path d="M574 600L661 493L566 487Z" fill="#277297" stroke="#277297"></path><path d="M276 600L413 600L405 534Z" fill="#081a28" stroke="#081a28"></path><path d="M405 534L508 600L513 473Z" fill="#15384f" stroke="#15384f"></path><path d="M108 0L72 130L197 117Z" fill="#205a7a" stroke="#205a7a"></path><path d="M116 218L0 295L110 335Z" fill="#081a28" stroke="#081a28"></path><path d="M413 600L508 600L405 534Z" fill="#297ea6" stroke="#297ea6"></path><path d="M197 600L276 600L225 514Z" fill="#277297" stroke="#277297"></path><path d="M225 514L276 600L264 475Z" fill="#0c2435" stroke="#0c2435"></path><path d="M508 600L574 600L566 487Z" fill="#0c2435" stroke="#0c2435"></path><path d="M782 392L674 314L690 388Z" fill="#0c2435" stroke="#0c2435"></path><path d="M838 303L701 217L674 314Z" fill="#00101c" stroke="#00101c"></path><path d="M733 138L735 0L617 70Z" fill="#15384f" stroke="#15384f"></path><path d="M212 0L108 0L197 117Z" fill="#0c2435" stroke="#0c2435"></path><path d="M796 513L782 392L661 493Z" fill="#15384f" stroke="#15384f"></path><path d="M661 493L782 392L690 388Z" fill="#205a7a" stroke="#205a7a"></path><path d="M819 93L735 0L733 138Z" fill="#246688" stroke="#246688"></path><path d="M124 600L197 600L225 514Z" fill="#19435d" stroke="#19435d"></path><path d="M0 174L0 295L116 218Z" fill="#081a28" stroke="#081a28"></path><path d="M90 371L69 484L163 384Z" fill="#081a28" stroke="#081a28"></path><path d="M0 174L116 218L72 130Z" fill="#15384f" stroke="#15384f"></path><path d="M0 434L69 484L90 371Z" fill="#081a28" stroke="#081a28"></path><path d="M0 126L0 174L72 130Z" fill="#112e42" stroke="#112e42"></path><path d="M782 392L838 303L674 314Z" fill="#081a28" stroke="#081a28"></path><path d="M0 0L0 126L72 130Z" fill="#15384f" stroke="#15384f"></path><path d="M796 173L819 93L733 138Z" fill="#15384f" stroke="#15384f"></path><path d="M900 113L819 93L796 173Z" fill="#297ea6" stroke="#297ea6"></path><path d="M819 93L771 0L735 0Z" fill="#297ea6" stroke="#297ea6"></path><path d="M574 600L674 600L661 493Z" fill="#112e42" stroke="#112e42"></path><path d="M900 415L900 281L838 303Z" fill="#297ea6" stroke="#297ea6"></path><path d="M0 295L0 434L90 371Z" fill="#246688" stroke="#246688"></path><path d="M69 484L124 600L225 514Z" fill="#277297" stroke="#277297"></path><path d="M0 600L124 600L69 484Z" fill="#19435d" stroke="#19435d"></path><path d="M674 600L796 513L661 493Z" fill="#112e42" stroke="#112e42"></path><path d="M0 434L0 486L69 484Z" fill="#1d4e6b" stroke="#1d4e6b"></path><path d="M108 0L0 0L72 130Z" fill="#112e42" stroke="#112e42"></path><path d="M900 281L900 216L838 303Z" fill="#0c2435" stroke="#0c2435"></path><path d="M838 303L900 216L796 173Z" fill="#19435d" stroke="#19435d"></path><path d="M819 93L900 0L771 0Z" fill="#277297" stroke="#277297"></path><path d="M900 415L838 303L782 392Z" fill="#0c2435" stroke="#0c2435"></path><path d="M900 216L900 113L796 173Z" fill="#081a28" stroke="#081a28"></path><path d="M796 513L900 415L782 392Z" fill="#205a7a" stroke="#205a7a"></path><path d="M674 600L817 600L796 513Z" fill="#205a7a" stroke="#205a7a"></path><path d="M796 513L900 504L900 415Z" fill="#205a7a" stroke="#205a7a"></path><path d="M0 486L0 600L69 484Z" fill="#19435d" stroke="#19435d"></path><path d="M900 113L900 0L819 93Z" fill="#297ea6" stroke="#297ea6"></path><path d="M817 600L900 504L796 513Z" fill="#1d4e6b" stroke="#1d4e6b"></path><path d="M817 600L900 600L900 504Z" fill="#246688" stroke="#246688"></path></g></svg>